<?xml version="1.0" standalone="no"?>
<!DOCTYPE svg PUBLIC "-//W3C//DTD SVG 1.1//EN" "http://www.w3.org/Graphics/SVG/1.1/DTD/svg11.dtd" >
<svg xmlns="http://www.w3.org/2000/svg">
<metadata>Generated by IcoMoon</metadata>
<defs>
<font id="icomoon" horiz-adv-x="1024">
<font-face units-per-em="1024" ascent="960" descent="-64" />
<missing-glyph horiz-adv-x="1024" />
<glyph unicode="&#x20;" horiz-adv-x="512" d="" />
<glyph unicode="&#xe600;" glyph-name="location" horiz-adv-x="640" d="M320 960c-177 0-320-143-320-320s160-416 320-704c160 288 320 527 320 704s-143 320-320 320zM320 512c-71 0-128 57-128 128s57 128 128 128 128-57 128-128-57-128-128-128z" />
<glyph unicode="&#xe601;" glyph-name="youtube" d="M731.429 438.857q0 21.143-17.143 30.857l-292.571 182.857q-17.714 11.429-37.143 1.143-18.857-10.286-18.857-32v-365.714q0-21.714 18.857-32 9.143-4.571 17.714-4.571 11.429 0 19.429 5.714l292.571 182.857q17.143 9.714 17.143 30.857zM1024 438.857q0-54.857-0.571-85.714t-4.857-78-12.857-84.286q-9.143-41.714-39.429-70.286t-70.857-33.143q-126.857-14.286-383.429-14.286t-383.429 14.286q-40.571 4.571-71.143 33.143t-39.714 70.286q-8 37.143-12.286 84.286t-4.857 78-0.571 85.714 0.571 85.714 4.857 78 12.857 84.286q9.143 41.714 39.429 70.286t70.857 33.143q126.857 14.286 383.429 14.286t383.429-14.286q40.571-4.571 71.143-33.143t39.714-70.286q8-37.143 12.286-84.286t4.857-78 0.571-85.714z" />
<glyph unicode="&#xe602;" glyph-name="menu" d="M128 170.667h768v85.333h-768v-85.333zM128 384h768v85.333h-768v-85.333zM128 682.667v-85.333h768v85.333h-768z" />
<glyph unicode="&#xe603;" glyph-name="social-facebook" d="M554.667 512h128v-128h-128v-298.667h-128v298.667h-128v128h128v53.547c0 50.731 15.957 114.816 47.701 149.845 31.744 35.115 71.381 52.608 118.869 52.608h89.429v-128h-89.6c-21.248 0-38.4-17.152-38.4-38.357v-89.643z" />
<glyph unicode="&#xe604;" glyph-name="social-twitter" d="M805.973 639.488c34.475 21.163 57.301 50.048 68.48 86.784-33.536-17.792-66.944-29.995-100.309-36.736-29.995 32.256-67.968 48.64-113.493 48.64-44.501 0-82.091-15.616-112.768-45.995-30.507-30.592-45.909-67.755-45.909-111.147 0-13.184 1.664-24.96 4.992-34.944-131.243 4.48-239.872 58.923-325.461 163.712-14.507-25.643-21.76-51.755-21.76-78.763 0-55.509 23.424-99.499 70.187-131.797-26.667 2.261-50.176 9.003-70.187 20.053 0-39.637 11.648-72.747 34.987-101.888 23.424-28.843 53.504-47.232 90.24-55.083-13.312-3.413-27.349-5.035-41.771-5.035-13.312 0-22.741 1.109-28.331 3.541 9.813-32.299 28.331-58.496 55.083-78.549 26.667-20.139 57.344-30.763 91.819-31.701-56.832-44.587-121.813-66.645-195.328-66.645-18.005 0-30.763 0.256-38.485 1.621 72.405-47.019 153.003-70.357 242.176-70.357 91.264 0 171.904 23.125 242.091 69.376 70.187 45.995 121.984 102.741 155.264 169.557 33.451 66.731 50.005 136.192 50.005 208.725v19.968c32.341 24.32 58.496 51.712 78.507 81.963-29.013-12.501-59.008-20.992-90.027-25.301z" />
<glyph unicode="&#xe606;" glyph-name="arrow-right" d="M389.171 285.798c-13.722-13.875-13.722-36.301 0-50.125 13.67-13.875 35.891-13.875 49.613 0l196.096 200.038c13.722 13.875 13.722 36.301 0 50.125l-196.096 200.090c-13.722 13.875-35.891 13.875-49.613 0s-13.722-36.25-0.051-50.074l160.819-175.053-160.768-175.002z" />
<glyph unicode="&#xe607;" glyph-name="arrow-left" d="M634.829 285.798c13.722-13.875 13.722-36.301 0-50.125-13.722-13.875-35.891-13.875-49.613 0l-196.096 200.038c-13.722 13.875-13.722 36.301 0 50.125l196.096 200.090c13.722 13.875 35.891 13.875 49.613 0s13.722-36.25 0-50.125l-160.768-175.002 160.768-175.002z" />
<glyph unicode="&#xe608;" glyph-name="arrow-down" d="M687.002 583.629c13.875 13.722 36.301 13.722 50.125 0 13.875-13.722 13.875-35.891 0-49.613l-200.038-196.096c-13.875-13.722-36.301-13.722-50.125 0l-200.090 196.096c-13.824 13.722-13.824 35.891 0 49.613 13.875 13.722 36.25 13.722 50.125 0l175.002-160.768 175.002 160.768z" />
<glyph unicode="&#xe609;" glyph-name="arrow-up" d="M336.947 337.971c-13.875-13.722-36.25-13.722-50.125 0-13.824 13.722-13.875 35.891 0 49.664l200.090 195.994c13.875 13.722 36.301 13.722 50.125 0l200.090-196.045c13.875-13.773 13.875-35.942 0-49.664s-36.25-13.722-50.125 0l-175.053 160.819-175.002-160.768z" />
<glyph unicode="&#xe60e;" glyph-name="staff" horiz-adv-x="1126" d="M768 611.84c0-84.831-68.769-153.6-153.6-153.6s-153.6 68.769-153.6 153.6c0 84.831 68.769 153.6 153.6 153.6s153.6-68.769 153.6-153.6zM337.92 765.44c0-79.176-64.184-143.36-143.36-143.36s-143.36 64.184-143.36 143.36c0 79.176 64.184 143.36 143.36 143.36s143.36-64.184 143.36-143.36zM1075.2 181.76c0-113.108-91.692-204.8-204.8-204.8s-204.8 91.692-204.8 204.8c0 113.108 91.692 204.8 204.8 204.8s204.8-91.692 204.8-204.8z" />
<glyph unicode="&#xe612;" glyph-name="search" d="M1000.64 70.848l-184.896 184.896c50.688 72.576 80.64 160.704 80.64 255.936 0 247.424-200.64 448-448 448s-448-200.576-448-448c0-247.424 200.576-448 448-448 95.232 0 183.424 29.952 256 80.64l184.896-184.896c30.72-30.72 80.64-30.72 111.36 0s30.72 80.576 0 111.424zM448.32 191.616c-176.704 0-320 143.232-320 320s143.296 320 320 320c176.768 0 320-143.232 320-320 0.064-176.768-143.168-320-320-320z" />
<glyph unicode="&#xe900;" glyph-name="corazon" d="M1024 625.152c-3.241 153.557-125.438 277.541-277.968 283.63l-0.56 0.018c-99.181-1.562-185.468-55.305-232.773-134.922l-0.699-1.27c-46.213 81.844-132.619 136.198-231.719 136.198-0.616 0-1.232-0.002-1.848-0.006l0.095 0.001c-153.090-6.107-275.287-130.091-278.523-283.338l-0.005-0.31c-0.809-8.167-1.27-17.653-1.27-27.246 0-28.964 4.205-56.947 12.037-83.37l-0.527 2.072c23.559-94.661 73.661-175.346 141.876-236.141l0.46-0.403 359.424-323.584 359.424 323.584c68.675 61.198 118.777 141.883 141.66 233.355l0.676 3.189c7.305 24.351 11.51 52.333 11.51 81.298 0 9.593-0.461 19.079-1.363 28.436l0.093-1.19z" />
<glyph unicode="&#xe901;" glyph-name="buceo" d="M317.793 473.070l18.714 65.324c2.27 8.598 9.426 15.042 18.249 16.23l0.113 0.012c0.57 0.055 1.233 0.086 1.902 0.086 9.592 0 17.696-6.375 20.305-15.119l0.038-0.15 19.068-66.383c8.046-26.954 32.614-46.267 61.693-46.267 0.408 0 0.814 0.004 1.22 0.011l-0.061-0.001h97.103c94.289 0 170.726 76.436 170.726 170.726s-76.436 170.726-170.726 170.726v0h-385.589c-94.289 0-170.726-76.436-170.726-170.726s76.436-170.726 170.726-170.726v0h85.451c0.031 0 0.067 0 0.103 0 29.075 0 53.64 19.308 61.573 45.802l0.117 0.455zM42.726 597.363c0.2 70.514 57.309 127.623 127.804 127.823h384.196c70.692 0 128-57.308 128-128s-57.308-128-128-128h-95.691c-9.673 0.096-17.813 6.553-20.441 15.384l-0.039 0.152-19.068 66.383c-7.922 26.931-32.417 46.257-61.425 46.257-0.005 0-0.011 0-0.016 0h-7.414c-26.608-3.009-48.154-21.705-55.324-46.504l-0.114-0.459-18.714-65.324c-2.667-8.983-10.807-15.441-20.469-15.536h-85.462c-70.514 0.2-127.623 57.309-127.823 127.804v0.019zM1024 405.274c-0.074 27.703-17.666 51.278-42.279 60.238l-0.447 0.142v408.894c-2.97 44.771-40.013 79.961-85.274 79.961s-82.304-35.19-85.261-79.703l-0.014-0.258v-408.894c-25.182-8.96-42.887-32.59-42.887-60.354 0-16.466 6.227-31.477 16.454-42.808l-0.050 0.056c-10.066-11.246-16.219-26.177-16.219-42.545 0-26.901 16.62-49.92 40.152-59.35l0.43-0.152c-14.822-86.593-89.325-151.669-179.028-151.669-99.806 0-180.797 80.561-181.491 180.204v10.659c11.798 0 21.363 9.564 21.363 21.363s-9.564 21.363-21.363 21.363h-170.902c-11.798 0-21.363-9.564-21.363-21.363s9.564-21.363 21.363-21.363v0-10.593c9.798-187.153 163.935-335.194 352.649-335.194 178.613 0 326.252 132.618 349.821 304.758l0.206 1.835c25.734 8.651 43.942 32.555 43.942 60.712 0 16.464-6.225 31.473-16.45 42.804l0.050-0.056c9.938 10.903 16.164 25.342 16.594 41.227l0.002 0.086zM896.177 917.274c23.597 0 42.726-19.129 42.726-42.726v0-405.363h-85.451v405.363c0 23.597 19.129 42.726 42.726 42.726v0zM831.912 426.814h128.177c11.798 0 21.363-9.564 21.363-21.363s-9.564-21.363-21.363-21.363v0h-128.177c-11.798 0-21.363 9.564-21.363 21.363s9.564 21.363 21.363 21.363v0zM629.23-21.274c-170.875 0.201-309.319 138.768-309.319 309.672 0 0.248 0 0.497 0.001 0.745v-0.038 10.593h85.451v-10.593c-0.003-0.428-0.005-0.934-0.005-1.44 0-123.639 100.229-223.868 223.868-223.868 112.813 0 206.136 83.446 221.614 191.981l0.14 1.194h85.804c-15.623-156.806-146.867-278.247-306.474-278.247-0.379 0-0.758 0.001-1.137 0.002h0.059zM959.735 298.637h-128.177c-11.798 0-21.363 9.564-21.363 21.363s9.564 21.363 21.363 21.363h128.177c11.798 0 21.363-9.564 21.363-21.363s-9.564-21.363-21.363-21.363v0z" />
<glyph unicode="&#xe902;" glyph-name="ckeck" d="M378.88 55.467l-378.88 380.018 106.951 106.951 271.929-271.929 575.716 575.716 106.951-108.089-682.667-682.667z" />
<glyph unicode="&#xe903;" glyph-name="restaurante" horiz-adv-x="790" d="M616.872-64c-46.608 0-84.392 37.783-84.392 84.392v0l24.364 510.941c-70.621 26.483-112.64 103.459-112.64 209.037 0.353 121.114 77.683 219.63 172.668 219.63s172.668-98.516 172.668-219.63c0-105.931-41.666-182.554-112.64-209.037l24.364-510.234c0.002-0.21 0.003-0.458 0.003-0.706 0-46.608-37.783-84.392-84.392-84.392-0.001 0-0.002 0-0.003 0v0zM616.872 927.514c-77.33 0-141.241-84.039-141.241-187.145 0-96.044 37.782-164.193 101.341-181.848 6.985-1.92 12.031-8.215 12.031-15.687 0-0.32-0.009-0.637-0.027-0.952l0.002 0.044-24.011-522.24c2.28-26.767 24.568-47.629 51.73-47.629s49.45 20.862 51.716 47.437l0.013 0.192-24.717 521.534c-0.016 0.272-0.025 0.589-0.025 0.909 0 7.473 5.046 13.767 11.917 15.66l0.114 0.027c63.559 17.655 101.341 85.804 101.341 181.848 0 103.812-62.852 187.851-140.182 187.851zM172.668-64c-46.608 0-84.392 37.783-84.392 84.392v0l24.364 510.941c-65.996 24.321-112.28 86.511-112.64 159.559v252.866c0 8.971 7.272 16.243 16.243 16.243v0h72.739c0.211 0.010 0.458 0.015 0.706 0.015 8.971 0 16.243-7.272 16.243-16.243 0-0.005 0-0.011 0-0.016v0.001-218.571h17.655v218.571c0 0.018 0 0.040 0 0.062 0 8.971 7.272 16.243 16.243 16.243 0.497 0 0.989-0.022 1.475-0.066l-0.063 0.005h64.265c8.971 0 16.243-7.272 16.243-16.243v-218.571h18.008v218.571c0 8.971 7.272 16.243 16.243 16.243v0h72.739c8.971 0 16.243-7.272 16.243-16.243v0-252.822c-0.36-73.092-46.644-135.281-111.459-159.221l-1.181-0.382 24.364-510.234c0.002-0.21 0.003-0.458 0.003-0.707 0-46.485-37.584-84.192-84.022-84.391h-0.019zM32.486 927.514v-236.579c0.318-62.906 42.657-115.837 100.368-132.178l0.973-0.236c6.985-1.92 12.031-8.215 12.031-15.687 0-0.32-0.009-0.637-0.027-0.952l0.002 0.044-24.717-522.946c0-28.569 23.16-51.73 51.73-51.73s51.73 23.16 51.73 51.73v0l-24.717 521.887c-0.103 0.687-0.162 1.479-0.162 2.285 0 7.522 5.113 13.85 12.054 15.697l0.113 0.026c58.273 16.799 100.245 69.476 100.634 132.016v236.624h-40.254v-218.571c0-8.971-7.272-16.243-16.243-16.243v0h-50.494c-8.971 0-16.243 7.272-16.243 16.243v0 218.571h-33.192v-218.571c0-0.018 0-0.040 0-0.062 0-8.473-6.488-15.431-14.768-16.177l-0.063-0.005h-51.906c-8.971 0-16.243 7.272-16.243 16.243v0 218.571z" />
<glyph unicode="&#xe904;" glyph-name="cama" d="M971.034 503.79v252.116c0 0 0 0.001 0 0.001 0 34.588-27.939 62.651-62.48 62.851h-793.089c-34.56-0.2-62.499-28.263-62.499-62.851 0 0 0-0.001 0-0.001v0-252.116c-30.174-4.787-52.966-30.616-52.966-61.768 0-0.009 0-0.018 0-0.027v0.001-156.072c0-10.921 8.853-19.774 19.774-19.774v0h21.186v-97.457c0-10.921 8.853-19.774 19.774-19.774v0h35.31v-36.37c0-10.921 8.853-19.774 19.774-19.774s19.774 8.853 19.774 19.774v0 35.31h752.463v-35.31c0-10.921 8.853-19.774 19.774-19.774s19.774 8.853 19.774 19.774v0 35.31h35.31c10.921 0 19.774 8.853 19.774 19.774v0 98.516h21.186c10.921 0 19.774 8.853 19.774 19.774v156.072c0 0.024 0 0.052 0 0.081 0 31.027-22.608 56.773-52.25 61.663l-0.363 0.049zM92.513 755.906c0 12.871 10.434 23.305 23.305 23.305v0h792.717c12.871 0 23.305-10.434 23.305-23.305v0-251.41h-70.621c13.771 14.83 27.895 30.367 42.372 47.316 2.969 3.439 4.777 7.953 4.777 12.888s-1.808 9.449-4.799 12.914l0.021-0.025c-52.927 61.653-108.331 117.392-167.529 168.88l-1.96 1.669c-3.439 2.969-7.953 4.777-12.888 4.777s-9.449-1.808-12.914-4.799l0.025 0.021c-61.612-53.194-117.357-108.939-168.813-168.494l-1.736-2.055c-2.969-3.439-4.777-7.953-4.777-12.888s1.808-9.449 4.799-12.914l-0.021 0.025c14.477-16.596 28.601-32.486 42.372-47.316h-135.945c13.771 14.83 27.895 30.367 42.372 47.316 2.969 3.439 4.777 7.953 4.777 12.888s-1.808 9.449-4.799 12.914l0.021-0.025c-53.194 61.608-108.939 117.353-168.492 168.811l-2.057 1.738c-3.439 2.969-7.953 4.777-12.888 4.777s-9.449-1.808-12.914-4.799l0.025 0.021c-61.759-53.206-117.618-108.954-169.184-168.52l-1.718-2.029c-2.969-3.439-4.777-7.953-4.777-12.888s1.808-9.449 4.799-12.914l-0.021 0.025c14.477-16.596 28.601-32.486 42.372-47.316h-70.621zM635.586 504.497c-18.008 18.714-35.31 38.488-55.79 60.028 44.542 50.571 90.672 96.701 139.554 139.783l1.688 1.459c50.571-44.542 96.701-90.672 139.783-139.554l1.459-1.688c-19.068-21.539-37.429-41.666-55.79-60.028zM216.099 504.497c-18.008 18.714-35.31 38.488-55.79 60.028 44.542 50.569 90.672 96.699 139.553 139.782l1.689 1.46c50.569-44.542 96.699-90.672 139.782-139.553l1.46-1.689c-19.068-21.539-37.429-41.666-55.79-60.028zM943.492 188.469h-862.985v77.683h862.985zM984.452 305.699h-944.905v136.298c-0.016 0.316-0.025 0.687-0.025 1.059 0 12.481 10.118 22.599 22.599 22.599 0.009 0 0.017 0 0.026 0h899.706c12.481 0 22.599-10.118 22.599-22.599v0-136.298z" />
<glyph unicode="&#xe905;" glyph-name="spa" horiz-adv-x="810" d="M600.276 810.284l-8.121 6.003c-6.561 27.819-20.315 51.784-39.192 70.618l-0.003 0.003c-53.752 45.828-124.021 73.708-200.803 73.708-6.873 0-13.693-0.223-20.455-0.663l0.921 0.048c-60.734 0-133.473-39.901-199.857-109.462-58.615-61.793-119.702-157.484-116.877-243.641-10.28-42.098-16.176-90.428-16.176-140.136 0-6.597 0.104-13.17 0.31-19.717l-0.024 0.957c0-55.79 65.324-173.727 98.163-208.684 10.579-56.016 30.118-105.897 57.267-150.651l-1.123 1.994 6.003-7.768c30.014-40.96 109.109-146.891 225.986-146.891s195.972 105.931 225.986 146.891l5.65 7.768c28.908 42.814 49.147 93.835 56.978 148.853l0.224 1.922c32.955 40.68 61.055 87.253 82.263 137.449l1.423 3.792c7.768 16.596 14.83 32.486 22.246 45.55 71.68 131.354 13.771 252.822-180.789 382.058zM101.341 306.759c-27.3 40.304-47.685 87.699-58.179 138.706l-0.436 2.536c-0.12 4.496-0.188 9.788-0.188 15.096 0 44.678 4.827 88.228 13.988 130.158l-0.735-4.013c32.132 20.48 158.897 95.338 191.382 110.874 59.593 31.736 129.172 60.102 201.794 81.34l7.95 1.992c10.15 1.753 17.773 10.491 17.773 21.010 0 11.766-9.538 21.304-21.304 21.304-1.247 0-2.469-0.107-3.658-0.313l0.127 0.018c-84.917-24.7-157.994-54.255-227.271-90.129l6.934 3.266c-28.601-13.418-116.877-64.971-167.371-94.632 18.66 69.501 54.058 129.154 101.678 176.536l0.016 0.016c57.203 60.734 118.643 96.75 168.783 96.75 5.035 0.331 10.916 0.519 16.842 0.519 65.601 0 125.804-23.113 172.909-61.639l-0.487 0.386c18.484-17.964 30.132-42.877 30.718-70.512l0.002-0.109s0 0 0-2.472v0c-0.097-12.55-1.378-24.74-3.736-36.54l0.205 1.23c0-2.119 0-4.59 0-6.709-2.627-11.118-5.777-20.659-9.639-29.827l0.458 1.226-3.884-8.474c-4.424-9.661-8.901-17.767-13.895-25.507l0.477 0.789-4.943-7.062c-5.161-7.318-10.144-13.646-15.427-19.706l0.244 0.286-8.121-6.709c-6.709-7.415-13.771-14.124-21.186-21.186l-6.709-6.003c-8.121-7.062-16.243-13.771-25.070-20.127l-4.59-3.178c-19.421-14.124-40.254-27.542-61.44-40.254h-2.825l-35.31-20.127-4.59-2.825-11.652-6.709-26.13-15.183c-5.297-2.472-127.117-57.203-170.902-134.179-10.765-20.248-18.684-43.789-22.447-68.693l-0.152-1.221zM584.033 116.436l-6.356-8.121c-28.954-38.841-96.397-129.589-191.735-129.589s-162.781 90.748-191.735 129.589l-6.356 8.121c-22.789 38.77-39.886 83.932-48.695 131.99l-0.387 2.542s0 2.472 0 3.531 0 0 0 1.766c-0.016 0.945-0.025 2.059-0.025 3.176 0 34.526 8.77 67.004 24.205 95.326l-0.522-1.046c35.31 64.618 150.069 115.818 153.6 117.583l39.194 22.599 30.367 17.302 29.661-16.949 39.548-22.952h2.119c42.835-20.050 79.753-43.632 113.148-71.314l-0.861 0.694c15.209-12.909 28.104-27.939 38.382-44.743l0.459-0.807c4.845-8.429 9.265-18.233 12.72-28.481l0.345-1.18c5.119-14.947 8.643-32.267 9.853-50.221l0.034-0.626c0-6.709 0-12.712 0-16.949s0-6.709 0-6.709c-5.448-50.512-22.215-96.212-47.704-135.761l0.741 1.228zM743.283 447.647c-7.768-14.124-15.183-30.367-23.305-48.022-16.124-36.491-32.522-67.086-50.896-96.313l1.815 3.094c0 2.825 0 6.356-2.119 9.181v6.003c0 4.237-2.472 8.474-3.884 12.712v4.59c-4.861 13.645-10.34 25.295-16.784 36.312l0.542-1.002c-5.773 9.897-11.841 18.439-18.58 26.395l0.219-0.265c-7.188 8.381-14.571 15.988-22.394 23.121l-0.204 0.184c-8.121 7.415-16.596 14.477-25.070 20.833v0c-8.828 6.709-17.302 12.712-26.13 18.361v0l-25.070 15.537-21.892 12.006-14.124 7.062-12.006 5.65-39.548 22.952-16.243 10.24c21.988 14.026 40.758 27.63 58.7 42.214l-1.144-0.901h1.766c18.108 15.4 34.3 31.927 48.893 49.809l0.542 0.685 3.178 3.884c13.438 15.979 25.215 34.081 34.635 53.537l0.676 1.547 2.825 7.062c3.080 7.055 6.209 15.856 8.791 24.888l0.39 1.594s0 3.531 0 5.297c2.456 9.41 4.45 20.709 5.576 32.262l0.073 0.929s0 1.766 0 2.825c207.272-141.948 189.97-242.229 150.775-314.262z" />
<glyph unicode="&#xe906;" glyph-name="phone" d="M727.040 960h-430.080c-41.584 0-75.294-33.71-75.294-75.294v0-873.412c0-41.584 33.71-75.294 75.294-75.294v0h430.080c41.584 0 75.294 33.71 75.294 75.294v0 873.412c0 41.584-33.71 75.294-75.294 75.294v0zM256 823.266h512v-646.325h-512zM296.96 925.666h430.080c22.622 0 40.96-18.338 40.96-40.96v0-27.106h-512v27.106c0 22.622 18.338 40.96 40.96 40.96v0zM727.040-30.268h-430.080c-22.622 0-40.96 18.338-40.96 40.96v0 130.108h512v-129.506c0-22.622-18.338-40.96-40.96-40.96v0zM512 123.934c-37.591-0.001-68.063-30.475-68.063-68.066s30.474-68.066 68.066-68.066c37.592 0 68.066 30.474 68.066 68.066 0 0.212-0.001 0.423-0.003 0.635v-0.032c-0.341 37.332-30.683 67.464-68.063 67.464-0.001 0-0.002 0-0.003 0v0zM512 21.534c-18.96 0.003-34.329 15.374-34.329 34.334 0 18.962 15.372 34.334 34.334 34.334 18.75 0 33.99-15.030 34.328-33.7v-0.032c0.003-0.179 0.005-0.391 0.005-0.602 0-18.962-15.372-34.334-34.334-34.334-0.002 0-0.004 0-0.006 0v0zM443.934 874.466h68.066c9.481 0 17.167 7.686 17.167 17.167s-7.686 17.167-17.167 17.167h-68.066c-9.481 0-17.167-7.686-17.167-17.167s7.686-17.167 17.167-17.167v0zM563.2 874.466h16.866c9.481 0 17.167 7.686 17.167 17.167s-7.686 17.167-17.167 17.167h-16.866c-9.481 0-17.167-7.686-17.167-17.167s7.686-17.167 17.167-17.167v0zM963.765 882.296c-3.083 3.083-7.342 4.99-12.047 4.99-9.409 0-17.037-7.628-17.037-17.037 0-4.705 1.907-8.964 4.99-12.047v0c29.53-29.629 47.787-70.508 47.787-115.652s-18.258-86.023-47.792-115.656l0.004 0.004c-3.083-3.083-4.99-7.342-4.99-12.047 0-9.409 7.628-17.037 17.037-17.037 4.705 0 8.964 1.907 12.047 4.99v0c35.634 35.824 57.661 85.212 57.661 139.746s-22.027 103.922-57.669 139.754l0.008-0.009zM894.494 843.144c-3.083 3.083-7.342 4.99-12.047 4.99-9.409 0-17.037-7.628-17.037-17.037 0-4.705 1.907-8.964 4.99-12.047v0c20.267-20.273 32.802-48.278 32.802-79.209s-12.535-58.936-32.802-79.21v0c-3.083-3.083-4.99-7.342-4.99-12.047 0-9.409 7.628-17.037 17.037-17.037 4.705 0 8.964 1.907 12.047 4.99v0c26.371 26.468 42.675 62.982 42.675 103.304s-16.304 76.835-42.679 103.308l0.004-0.004zM81.92 857.6c3.083 3.083 4.99 7.342 4.99 12.047 0 9.409-7.628 17.037-17.037 17.037-4.705 0-8.964-1.907-12.047-4.99v0c-34.92-35.696-56.466-84.599-56.466-138.535 0-55.137 22.517-105.014 58.857-140.938l0.019-0.019c3.083-3.083 7.342-4.99 12.047-4.99 9.409 0 17.037 7.628 17.037 17.037 0 4.705-1.907 8.964-4.99 12.047v0c-30.256 29.746-49.005 71.114-49.005 116.861 0 44.547 17.778 84.941 46.626 114.475l-0.031-0.032zM153.6 847.962c-3.064 3.125-7.329 5.062-12.047 5.062s-8.983-1.937-12.044-5.059l-0.003-0.003c-26.371-26.468-42.675-62.982-42.675-103.304s16.304-76.835 42.679-103.308l-0.004 0.004c3.083-3.083 7.342-4.99 12.047-4.99 9.409 0 17.037 7.628 17.037 17.037 0 4.705-1.907 8.964-4.99 12.047v0c-20.267 20.273-32.802 48.278-32.802 79.209s12.535 58.936 32.802 79.21v0c3.125 3.064 5.062 7.329 5.062 12.047s-1.937 8.983-5.059 12.044l-0.003 0.003z" />
<glyph unicode="&#xe907;" glyph-name="check-black" d="M810.667 832h-597.333c-47.36 0-85.333-38.4-85.333-85.333v-597.333c0-46.933 37.973-85.333 85.333-85.333h597.333c47.36 0 85.333 38.4 85.333 85.333v597.333c0 46.933-37.973 85.333-85.333 85.333zM426.667 234.667l-213.333 213.333 60.16 60.16 153.173-152.747 323.84 323.84 60.16-60.587-384-384z" />
<glyph unicode="&#xe908;" glyph-name="check-white" d="M810.667 746.667v-597.333h-597.333v597.333h597.333zM810.667 832h-597.333c-46.933 0-85.333-38.4-85.333-85.333v-597.333c0-46.933 38.4-85.333 85.333-85.333h597.333c46.933 0 85.333 38.4 85.333 85.333v597.333c0 46.933-38.4 85.333-85.333 85.333z" />
<glyph unicode="&#xe909;" glyph-name="down" d="M707.84 593.493l-195.84-195.413-195.84 195.413-60.16-60.16 256-256 256 256z" />
<glyph unicode="&#xe90a;" glyph-name="video" d="M512 874.667c-235.52 0-426.667-191.147-426.667-426.667s191.147-426.667 426.667-426.667 426.667 191.147 426.667 426.667-191.147 426.667-426.667 426.667zM426.667 256v384l256-192-256-192z" />
<glyph unicode="&#xe90b;" glyph-name="share" d="M768 273.92c-32.427 0-61.44-12.8-83.627-32.853l-304.213 177.067c2.133 9.813 3.84 19.627 3.84 29.867s-1.707 20.053-3.84 29.867l300.8 175.36c23.040-21.333 53.333-34.56 87.040-34.56 70.827 0 128 57.173 128 128s-57.173 128-128 128-128-57.173-128-128c0-10.24 1.707-20.053 3.84-29.867l-300.8-175.36c-23.040 21.333-53.333 34.56-87.040 34.56-70.827 0-128-57.173-128-128s57.173-128 128-128c33.707 0 64 13.227 87.040 34.56l303.787-177.493c-2.133-8.96-3.413-18.347-3.413-27.733 0-68.693 55.893-124.587 124.587-124.587s124.587 55.893 124.587 124.587-55.893 124.587-124.587 124.587z" />
<glyph unicode="&#xe90c;" glyph-name="depa" horiz-adv-x="1329" d="M896.183-64h-515.652c-209.986 0-380.531 170.545-380.531 380.531v262.939c0 209.986 170.545 380.531 380.531 380.531h262.939c209.986 0 380.531-170.545 380.531-380.531v-515.652c0-70.482-57.335-127.817-127.817-127.817zM380.531 899.743c-176.753 0-320.274-143.521-320.274-320.274v-262.939c0-176.753 143.521-320.274 320.274-320.274h515.652c37.25 0 67.561 30.311 67.561 67.561v515.652c0 176.753-143.521 320.274-320.274 320.274h-262.939zM512.365 115.31c-180.405 0-326.847 146.807-326.847 326.847s146.807 326.847 326.847 326.847c180.405 0 326.847-146.807 326.847-326.847s-146.807-326.847-326.847-326.847zM512.365 708.748c-147.173 0-266.591-119.783-266.591-266.591s119.783-266.591 266.591-266.591c147.173 0 266.591 119.783 266.591 266.591s-119.783 266.591-266.591 266.591zM967.395 474.659v48.571c0 0.73 0 77.786-8.765 150.459-15.338 73.404-59.892 123.435-60.257 123.8l-24.103 26.659 121.609 76.69 127.087-239.932c12.417-17.894 16.799-43.823 10.956-68.291-5.843-24.103-21.912-44.919-44.188-56.97l-122.34-60.987zM964.839 809.906c17.894-26.659 41.997-70.482 53.683-126.357 4.748-40.902 7.304-81.803 8.399-112.114l35.789 17.894c6.208 3.287 11.321 9.86 13.512 17.894s0.365 16.068-4.017 22.642l-98.237 185.153-9.13-5.113zM1328.571-30.767h-60.257v92.394h-175.292v60.257h235.549z" />
<glyph unicode="&#xe90d;" glyph-name="dormitorio" horiz-adv-x="1403" d="M1402.88-64h-62.293v413.867c0 52.053-41.813 93.867-93.867 93.867h-1090.56c-52.053 0-93.867-41.813-93.867-93.867v-413.867h-62.293v413.867c0 86.187 69.973 156.16 156.16 156.16h1091.413c86.187 0 156.16-69.973 156.16-156.16v-413.867zM25.6 129.707h1341.44v-62.293h-1341.44v62.293zM1313.28 524.8h-62.293v279.040c0 52.053-41.813 93.867-93.867 93.867h-911.36c-52.053 0-93.867-41.813-93.867-93.867v-279.040h-62.293v279.040c0 86.187 69.973 156.16 156.16 156.16h911.36c86.187 0 156.16-69.973 156.16-156.16v-279.040zM649.387 530.773h-62.293v123.733c0 29.013-23.040 52.053-52.053 52.053h-150.187c-29.013 0-52.053-23.040-52.053-52.053v-124.587h-62.293v124.587c0 63.147 51.2 114.347 114.347 114.347h150.187c63.147 0 114.347-51.2 114.347-114.347v-123.733zM1126.4 530.773h-62.293v123.733c0 29.013-23.040 52.053-52.053 52.053h-150.187c-29.013 0-52.053-23.040-52.053-52.053v-124.587h-62.293v124.587c0 63.147 51.2 114.347 114.347 114.347h150.187c63.147 0 114.347-51.2 114.347-114.347v-123.733z" />
<glyph unicode="&#xe90e;" glyph-name="more" d="M544.252 480.252v479.748h-64.504v-479.748h-479.748v-64.504h479.748v-479.748h64.504v479.748h479.748v64.504z" />
<glyph unicode="&#xe90f;" glyph-name="close" d="M810.667 686.933l-59.733 59.733-238.933-238.933-238.933 238.933-59.733-59.733 238.933-238.933-238.933-238.933 59.733-59.733 238.933 238.933 238.933-238.933 59.733 59.733-238.933 238.933 238.933 238.933z" />
<glyph unicode="&#xe910;" glyph-name="google-plus" d="M359.274 380.414h159.984c-28.082-79.396-104.139-136.32-193.182-135.663-108.041 0.798-197.376 87.228-201.571 195.191-4.496 115.728 88.35 211.311 203.097 211.311 52.466 0 100.345-19.991 136.441-52.748 8.55-7.761 21.564-7.81 29.973 0.105l58.761 55.304c9.189 8.65 9.222 23.258 0.060 31.937-57.244 54.232-134.034 88.035-218.714 89.688-180.614 3.526-332.856-144.559-334.114-325.205-1.269-182.002 145.886-329.938 327.593-329.938 174.744 0 317.495 136.823 327.057 309.176 0.255 2.161 0.422 75.19 0.422 75.19h-295.808c-12.125 0-21.953-9.828-21.953-21.953v-80.444c0-12.125 9.83-21.953 21.953-21.953zM926.164 497.459v78.598c0 10.626-8.612 19.238-19.238 19.238h-66.153c-10.626 0-19.238-8.612-19.238-19.238v-78.598h-78.598c-10.626 0-19.238-8.612-19.238-19.238v-66.153c0-10.626 8.612-19.238 19.238-19.238h78.598v-78.598c0-10.626 8.612-19.238 19.238-19.238h66.153c10.626 0 19.238 8.612 19.238 19.238v78.598h78.598c10.626 0 19.238 8.612 19.238 19.238v66.153c0 10.626-8.612 19.238-19.238 19.238h-78.598z" />
<glyph unicode="&#xe911;" glyph-name="icon-volver" horiz-adv-x="1496" d="M512.5-64l-512.5 511.5 512.5 512.5 105.897-105.897-331.676-331.676h1208.82v-149.854h-1208.82l331.676-330.677-105.897-105.897z" />
</font>
</defs>
</svg>
